<svg xmlns="http://www.w3.org/2000/svg" viewBox="0 0 1200 630" width="1200" height="630">
  <defs>
    <linearGradient id="bg" x1="0%" y1="0%" x2="100%" y2="100%">
      <stop offset="0%" style="stop-color:#0f172a"/>
      <stop offset="100%" style="stop-color:#1e293b"/>
    </linearGradient>
  </defs>

  <!-- Background -->
  <rect width="1200" height="630" fill="url(#bg)"/>

  <!-- Grid pattern -->
  <g stroke="#334155" stroke-width="1" opacity="0.3">
    <line x1="0" y1="0" x2="1200" y2="630"/>
    <line x1="0" y1="630" x2="1200" y2="0"/>
    <!-- Horizontal lines -->
    <line x1="0" y1="105" x2="1200" y2="105"/>
    <line x1="0" y1="210" x2="1200" y2="210"/>
    <line x1="0" y1="315" x2="1200" y2="315"/>
    <line x1="0" y1="420" x2="1200" y2="420"/>
    <line x1="0" y1="525" x2="1200" y2="525"/>
    <!-- Vertical lines -->
    <line x1="200" y1="0" x2="200" y2="630"/>
    <line x1="400" y1="0" x2="400" y2="630"/>
    <line x1="600" y1="0" x2="600" y2="630"/>
    <line x1="800" y1="0" x2="800" y2="630"/>
    <line x1="1000" y1="0" x2="1000" y2="630"/>
  </g>

  <!-- Game elements - bots -->
  <circle cx="300" cy="315" r="30" fill="#3b82f6" stroke="#ffffff" stroke-width="3"/>
  <circle cx="900" cy="315" r="30" fill="#ef4444" stroke="#ffffff" stroke-width="3"/>

  <!-- Cores -->
  <circle cx="200" cy="200" r="25" fill="#3b82f6"/>
  <circle cx="1000" cy="430" r="25" fill="#ef4444"/>

  <!-- Energy nodes -->
  <circle cx="450" cy="250" r="12" fill="#fbbf24"/>
  <circle cx="550" cy="350" r="12" fill="#fbbf24"/>
  <circle cx="650" cy="280" r="12" fill="#fbbf24"/>
  <circle cx="750" cy="380" r="12" fill="#fbbf24"/>

  <!-- Title text -->
  <text x="600" y="560" text-anchor="middle" font-family="system-ui, -apple-system, sans-serif" font-size="48" font-weight="bold" fill="#f8fafc">
    AI Code Battle
  </text>
  <text x="600" y="600" text-anchor="middle" font-family="system-ui, -apple-system, sans-serif" font-size="24" fill="#94a3b8">
    Competitive Bot Programming
  </text>
</svg>
